<svg xmlns="http://www.w3.org/2000/svg" width="997.4000000000001" height="335.3" viewBox="-116.7 0 997.4000000000001 335.3"><defs ><marker id="arrow" markerWidth="10" markerHeight="10" refX="10" refY="5" orient="auto-start-reverse" markerUnits="strokeWidth"><path d="M0,0 L10,5 L0,10 Z" fill="black"/></marker></defs><g ><g stroke="rgb(238, 255, 204)" stroke-width="1"><polygon points="0.0,156.8 800,156.8 800,228.00000000000003 0.0,228.00000000000003" fill="rgb(238, 255, 204)" stroke="none"/><polygon points="2.5,156.8 15.0,156.8 797.5,228.00000000000003 785.0,228.00000000000003" fill="#fff"/><line x1="2.5" y1="156.8" x2="785.0" y2="228.00000000000003"/><line x1="15.0" y1="156.8" x2="797.5" y2="228.00000000000003"/><text x="400.0" y="198.40000000000003" font-size="12" font-family="Roboto" font-weight="normal" text-anchor="middle">et accusa</text></g><g stroke="rgb(204, 255, 246)" stroke-width="1"><polygon points="0.0,263.6 800,263.6 800,334.8 0.0,334.8" fill="rgb(204, 255, 246)" stroke="none"/><polygon points="2.5,263.6 15.0,263.6 797.5,334.8 785.0,334.8" fill="#fff"/><line x1="2.5" y1="263.6" x2="785.0" y2="334.8"/><line x1="15.0" y1="263.6" x2="797.5" y2="334.8"/><text x="400.0" y="305.20000000000005" font-size="12" font-family="Roboto" font-weight="normal" text-anchor="middle"> accu</text></g></g><g transform="translate(0, 0)"><g text-anchor="middle"><g ><g transform="translate(12.5, 12)"><text x="0.0" font-size="12" font-family="Roboto" font-weight="normal">0</text><text x="25.0" font-size="12" font-family="Roboto" font-weight="normal">1</text><text x="50.0" font-size="12" font-family="Roboto" font-weight="normal">2</text><text x="75.0" font-size="12" font-family="Roboto" font-weight="normal">3</text><text x="100.0" font-size="12" font-family="Roboto" font-weight="normal">4</text><text x="125.0" font-size="12" font-family="Roboto" font-weight="normal">5</text><text x="150.0" font-size="12" font-family="Roboto" font-weight="normal">6</text><text x="175.0" font-size="12" font-family="Roboto" font-weight="normal">7</text><text x="200.0" font-size="12" font-family="Roboto" font-weight="normal">8</text><text x="225.0" font-size="12" font-family="Roboto" font-weight="normal">9</text><text x="250.0" font-size="12" font-family="Roboto" font-weight="normal">10</text><text x="275.0" font-size="12" font-family="Roboto" font-weight="normal">11</text><text x="300.0" font-size="12" font-family="Roboto" font-weight="normal">12</text><text x="325.0" font-size="12" font-family="Roboto" font-weight="normal">13</text><text x="350.0" font-size="12" font-family="Roboto" font-weight="normal">14</text><text x="375.0" font-size="12" font-family="Roboto" font-weight="normal">15</text><text x="400.0" font-size="12" font-family="Roboto" font-weight="normal">16</text><text x="425.0" font-size="12" font-family="Roboto" font-weight="normal">17</text><text x="450.0" font-size="12" font-family="Roboto" font-weight="normal">18</text><text x="475.0" font-size="12" font-family="Roboto" font-weight="normal">19</text><text x="500.0" font-size="12" font-family="Roboto" font-weight="normal">20</text><text x="525.0" font-size="12" font-family="Roboto" font-weight="normal">21</text><text x="550.0" font-size="12" font-family="Roboto" font-weight="normal">22</text><text x="575.0" font-size="12" font-family="Roboto" font-weight="normal">23</text><text x="600.0" font-size="12" font-family="Roboto" font-weight="normal">24</text><text x="625.0" font-size="12" font-family="Roboto" font-weight="normal">25</text><text x="650.0" font-size="12" font-family="Roboto" font-weight="normal">26</text><text x="675.0" font-size="12" font-family="Roboto" font-weight="normal">27</text><text x="700.0" font-size="12" font-family="Roboto" font-weight="normal">28</text><text x="725.0" font-size="12" font-family="Roboto" font-weight="normal">29</text><text x="750.0" font-size="12" font-family="Roboto" font-weight="normal">30</text><text x="775.0" font-size="12" font-family="Roboto" font-weight="normal">31</text></g><g transform="translate(0, 14.399999999999999)"><g transform="translate(0, 0)"><rect style=";fill:rgb(229, 229, 229)" x="0.0" y="0.5" width="800.0" height="35.1" fill="rgb(229, 229, 229)"/></g><g transform="translate(12.5, 23.8)"><g transform="translate(387.5, -6)"><text font-size="12" font-family="Roboto" font-weight="normal" text-anchor="middle" y="6"><tspan >Lorem ipsum dolor</tspan></text></g></g><g transform="translate(12.5, 47.6)"/></g></g></g><g stroke="black" stroke-width="1" stroke-linecap="butt" transform="translate(0, 14.399999999999999)"><line x2="800.0" y1="35.6" y2="35.6"/><line x2="800.0"/><line x1="0.5" x2="0.5" y2="35.6"/><line x1="25.46875" x2="25.46875" y2="4.45"/><line x1="25.46875" x2="25.46875" y1="31.150000000000002" y2="35.6"/><line x1="50.4375" x2="50.4375" y2="4.45"/><line x1="50.4375" x2="50.4375" y1="31.150000000000002" y2="35.6"/><line x1="75.40625" x2="75.40625" y2="4.45"/><line x1="75.40625" x2="75.40625" y1="31.150000000000002" y2="35.6"/><line x1="100.375" x2="100.375" y2="4.45"/><line x1="100.375" x2="100.375" y1="31.150000000000002" y2="35.6"/><line x1="125.34375" x2="125.34375" y2="4.45"/><line x1="125.34375" x2="125.34375" y1="31.150000000000002" y2="35.6"/><line x1="150.3125" x2="150.3125" y2="4.45"/><line x1="150.3125" x2="150.3125" y1="31.150000000000002" y2="35.6"/><line x1="175.28125" x2="175.28125" y2="4.45"/><line x1="175.28125" x2="175.28125" y1="31.150000000000002" y2="35.6"/><line x1="200.25" x2="200.25" y2="4.45"/><line x1="200.25" x2="200.25" y1="31.150000000000002" y2="35.6"/><line x1="225.21875" x2="225.21875" y2="4.45"/><line x1="225.21875" x2="225.21875" y1="31.150000000000002" y2="35.6"/><line x1="250.1875" x2="250.1875" y2="4.45"/><line x1="250.1875" x2="250.1875" y1="31.150000000000002" y2="35.6"/><line x1="275.15625" x2="275.15625" y2="4.45"/><line x1="275.15625" x2="275.15625" y1="31.150000000000002" y2="35.6"/><line x1="300.125" x2="300.125" y2="4.45"/><line x1="300.125" x2="300.125" y1="31.150000000000002" y2="35.6"/><line x1="325.09375" x2="325.09375" y2="4.45"/><line x1="325.09375" x2="325.09375" y1="31.150000000000002" y2="35.6"/><line x1="350.0625" x2="350.0625" y2="4.45"/><line x1="350.0625" x2="350.0625" y1="31.150000000000002" y2="35.6"/><line x1="375.03125" x2="375.03125" y2="4.45"/><line x1="375.03125" x2="375.03125" y1="31.150000000000002" y2="35.6"/><line x1="400.0" x2="400.0" y2="4.45"/><line x1="400.0" x2="400.0" y1="31.150000000000002" y2="35.6"/><line x1="424.96875" x2="424.96875" y2="4.45"/><line x1="424.96875" x2="424.96875" y1="31.150000000000002" y2="35.6"/><line x1="449.9375" x2="449.9375" y2="4.45"/><line x1="449.9375" x2="449.9375" y1="31.150000000000002" y2="35.6"/><line x1="474.90625" x2="474.90625" y2="4.45"/><line x1="474.90625" x2="474.90625" y1="31.150000000000002" y2="35.6"/><line x1="499.875" x2="499.875" y2="4.45"/><line x1="499.875" x2="499.875" y1="31.150000000000002" y2="35.6"/><line x1="524.84375" x2="524.84375" y2="4.45"/><line x1="524.84375" x2="524.84375" y1="31.150000000000002" y2="35.6"/><line x1="549.8125" x2="549.8125" y2="4.45"/><line x1="549.8125" x2="549.8125" y1="31.150000000000002" y2="35.6"/><line x1="574.78125" x2="574.78125" y2="4.45"/><line x1="574.78125" x2="574.78125" y1="31.150000000000002" y2="35.6"/><line x1="599.75" x2="599.75" y2="4.45"/><line x1="599.75" x2="599.75" y1="31.150000000000002" y2="35.6"/><line x1="624.71875" x2="624.71875" y2="4.45"/><line x1="624.71875" x2="624.71875" y1="31.150000000000002" y2="35.6"/><line x1="649.6875" x2="649.6875" y2="4.45"/><line x1="649.6875" x2="649.6875" y1="31.150000000000002" y2="35.6"/><line x1="674.65625" x2="674.65625" y2="4.45"/><line x1="674.65625" x2="674.65625" y1="31.150000000000002" y2="35.6"/><line x1="699.625" x2="699.625" y2="4.45"/><line x1="699.625" x2="699.625" y1="31.150000000000002" y2="35.6"/><line x1="724.59375" x2="724.59375" y2="4.45"/><line x1="724.59375" x2="724.59375" y1="31.150000000000002" y2="35.6"/><line x1="749.5625" x2="749.5625" y2="4.45"/><line x1="749.5625" x2="749.5625" y1="31.150000000000002" y2="35.6"/><line x1="799.5" x2="799.5" y2="35.6"/><line x1="774.53125" x2="774.53125" y2="4.45"/><line x1="774.53125" x2="774.53125" y1="31.150000000000002" y2="35.6"/></g></g><g transform="translate(0, 50.0)"><g text-anchor="middle"><g ><g transform="translate(0, 0)"><rect style=";fill:rgb(229, 229, 229)" x="0.0" y="0.5" width="800.0" height="35.1" fill="rgb(229, 229, 229)"/></g><g transform="translate(12.5, 23.8)"><g transform="translate(387.5, -6)"><text font-size="12" font-family="Roboto" font-weight="normal" text-anchor="middle" y="6"><tspan >consetetur sadipsci</tspan></text></g></g><g transform="translate(12.5, 47.6)"/></g></g><g stroke="black" stroke-width="1" stroke-linecap="butt" transform="translate(0, 0)"><line x2="800.0" y1="35.6" y2="35.6"/><line x1="0.5" x2="0.5" y2="35.6"/><line x1="25.46875" x2="25.46875" y2="4.45"/><line x1="25.46875" x2="25.46875" y1="31.150000000000002" y2="35.6"/><line x1="50.4375" x2="50.4375" y2="4.45"/><line x1="50.4375" x2="50.4375" y1="31.150000000000002" y2="35.6"/><line x1="75.40625" x2="75.40625" y2="4.45"/><line x1="75.40625" x2="75.40625" y1="31.150000000000002" y2="35.6"/><line x1="100.375" x2="100.375" y2="4.45"/><line x1="100.375" x2="100.375" y1="31.150000000000002" y2="35.6"/><line x1="125.34375" x2="125.34375" y2="4.45"/><line x1="125.34375" x2="125.34375" y1="31.150000000000002" y2="35.6"/><line x1="150.3125" x2="150.3125" y2="4.45"/><line x1="150.3125" x2="150.3125" y1="31.150000000000002" y2="35.6"/><line x1="175.28125" x2="175.28125" y2="4.45"/><line x1="175.28125" x2="175.28125" y1="31.150000000000002" y2="35.6"/><line x1="200.25" x2="200.25" y2="4.45"/><line x1="200.25" x2="200.25" y1="31.150000000000002" y2="35.6"/><line x1="225.21875" x2="225.21875" y2="4.45"/><line x1="225.21875" x2="225.21875" y1="31.150000000000002" y2="35.6"/><line x1="250.1875" x2="250.1875" y2="4.45"/><line x1="250.1875" x2="250.1875" y1="31.150000000000002" y2="35.6"/><line x1="275.15625" x2="275.15625" y2="4.45"/><line x1="275.15625" x2="275.15625" y1="31.150000000000002" y2="35.6"/><line x1="300.125" x2="300.125" y2="4.45"/><line x1="300.125" x2="300.125" y1="31.150000000000002" y2="35.6"/><line x1="325.09375" x2="325.09375" y2="4.45"/><line x1="325.09375" x2="325.09375" y1="31.150000000000002" y2="35.6"/><line x1="350.0625" x2="350.0625" y2="4.45"/><line x1="350.0625" x2="350.0625" y1="31.150000000000002" y2="35.6"/><line x1="375.03125" x2="375.03125" y2="4.45"/><line x1="375.03125" x2="375.03125" y1="31.150000000000002" y2="35.6"/><line x1="400.0" x2="400.0" y2="4.45"/><line x1="400.0" x2="400.0" y1="31.150000000000002" y2="35.6"/><line x1="424.96875" x2="424.96875" y2="4.45"/><line x1="424.96875" x2="424.96875" y1="31.150000000000002" y2="35.6"/><line x1="449.9375" x2="449.9375" y2="4.45"/><line x1="449.9375" x2="449.9375" y1="31.150000000000002" y2="35.6"/><line x1="474.90625" x2="474.90625" y2="4.45"/><line x1="474.90625" x2="474.90625" y1="31.150000000000002" y2="35.6"/><line x1="499.875" x2="499.875" y2="4.45"/><line x1="499.875" x2="499.875" y1="31.150000000000002" y2="35.6"/><line x1="524.84375" x2="524.84375" y2="4.45"/><line x1="524.84375" x2="524.84375" y1="31.150000000000002" y2="35.6"/><line x1="549.8125" x2="549.8125" y2="4.45"/><line x1="549.8125" x2="549.8125" y1="31.150000000000002" y2="35.6"/><line x1="574.78125" x2="574.78125" y2="4.45"/><line x1="574.78125" x2="574.78125" y1="31.150000000000002" y2="35.6"/><line x1="599.75" x2="599.75" y2="4.45"/><line x1="599.75" x2="599.75" y1="31.150000000000002" y2="35.6"/><line x1="624.71875" x2="624.71875" y2="4.45"/><line x1="624.71875" x2="624.71875" y1="31.150000000000002" y2="35.6"/><line x1="649.6875" x2="649.6875" y2="4.45"/><line x1="649.6875" x2="649.6875" y1="31.150000000000002" y2="35.6"/><line x1="674.65625" x2="674.65625" y2="4.45"/><line x1="674.65625" x2="674.65625" y1="31.150000000000002" y2="35.6"/><line x1="699.625" x2="699.625" y2="4.45"/><line x1="699.625" x2="699.625" y1="31.150000000000002" y2="35.6"/><line x1="724.59375" x2="724.59375" y2="4.45"/><line x1="724.59375" x2="724.59375" y1="31.150000000000002" y2="35.6"/><line x1="749.5625" x2="749.5625" y2="4.45"/><line x1="749.5625" x2="749.5625" y1="31.150000000000002" y2="35.6"/><line x1="799.5" x2="799.5" y2="35.6"/><line x1="774.53125" x2="774.53125" y2="4.45"/><line x1="774.53125" x2="774.53125" y1="31.150000000000002" y2="35.6"/></g></g><g transform="translate(0, 85.6)"><g text-anchor="middle"><g ><g transform="translate(0, 0)"><rect style=";fill:rgb(229, 229, 229)" x="0.0" y="0.5" width="800.0" height="35.1" fill="rgb(229, 229, 229)"/></g><g transform="translate(12.5, 23.8)"><g transform="translate(387.5, -6)"><text font-size="12" font-family="Roboto" font-weight="normal" text-anchor="middle" y="6"><tspan >ipsum dolor </tspan></text></g></g><g transform="translate(12.5, 47.6)"/></g></g><g stroke="black" stroke-width="1" stroke-linecap="butt" transform="translate(0, 0)"><line x2="800.0" y1="35.6" y2="35.6"/><line x1="0.5" x2="0.5" y2="35.6"/><line x1="25.46875" x2="25.46875" y2="4.45"/><line x1="25.46875" x2="25.46875" y1="31.150000000000002" y2="35.6"/><line x1="50.4375" x2="50.4375" y2="4.45"/><line x1="50.4375" x2="50.4375" y1="31.150000000000002" y2="35.6"/><line x1="75.40625" x2="75.40625" y2="4.45"/><line x1="75.40625" x2="75.40625" y1="31.150000000000002" y2="35.6"/><line x1="100.375" x2="100.375" y2="4.45"/><line x1="100.375" x2="100.375" y1="31.150000000000002" y2="35.6"/><line x1="125.34375" x2="125.34375" y2="4.45"/><line x1="125.34375" x2="125.34375" y1="31.150000000000002" y2="35.6"/><line x1="150.3125" x2="150.3125" y2="4.45"/><line x1="150.3125" x2="150.3125" y1="31.150000000000002" y2="35.6"/><line x1="175.28125" x2="175.28125" y2="4.45"/><line x1="175.28125" x2="175.28125" y1="31.150000000000002" y2="35.6"/><line x1="200.25" x2="200.25" y2="4.45"/><line x1="200.25" x2="200.25" y1="31.150000000000002" y2="35.6"/><line x1="225.21875" x2="225.21875" y2="4.45"/><line x1="225.21875" x2="225.21875" y1="31.150000000000002" y2="35.6"/><line x1="250.1875" x2="250.1875" y2="4.45"/><line x1="250.1875" x2="250.1875" y1="31.150000000000002" y2="35.6"/><line x1="275.15625" x2="275.15625" y2="4.45"/><line x1="275.15625" x2="275.15625" y1="31.150000000000002" y2="35.6"/><line x1="300.125" x2="300.125" y2="4.45"/><line x1="300.125" x2="300.125" y1="31.150000000000002" y2="35.6"/><line x1="325.09375" x2="325.09375" y2="4.45"/><line x1="325.09375" x2="325.09375" y1="31.150000000000002" y2="35.6"/><line x1="350.0625" x2="350.0625" y2="4.45"/><line x1="350.0625" x2="350.0625" y1="31.150000000000002" y2="35.6"/><line x1="375.03125" x2="375.03125" y2="4.45"/><line x1="375.03125" x2="375.03125" y1="31.150000000000002" y2="35.6"/><line x1="400.0" x2="400.0" y2="4.45"/><line x1="400.0" x2="400.0" y1="31.150000000000002" y2="35.6"/><line x1="424.96875" x2="424.96875" y2="4.45"/><line x1="424.96875" x2="424.96875" y1="31.150000000000002" y2="35.6"/><line x1="449.9375" x2="449.9375" y2="4.45"/><line x1="449.9375" x2="449.9375" y1="31.150000000000002" y2="35.6"/><line x1="474.90625" x2="474.90625" y2="4.45"/><line x1="474.90625" x2="474.90625" y1="31.150000000000002" y2="35.6"/><line x1="499.875" x2="499.875" y2="4.45"/><line x1="499.875" x2="499.875" y1="31.150000000000002" y2="35.6"/><line x1="524.84375" x2="524.84375" y2="4.45"/><line x1="524.84375" x2="524.84375" y1="31.150000000000002" y2="35.6"/><line x1="549.8125" x2="549.8125" y2="4.45"/><line x1="549.8125" x2="549.8125" y1="31.150000000000002" y2="35.6"/><line x1="574.78125" x2="574.78125" y2="4.45"/><line x1="574.78125" x2="574.78125" y1="31.150000000000002" y2="35.6"/><line x1="599.75" x2="599.75" y2="4.45"/><line x1="599.75" x2="599.75" y1="31.150000000000002" y2="35.6"/><line x1="624.71875" x2="624.71875" y2="4.45"/><line x1="624.71875" x2="624.71875" y1="31.150000000000002" y2="35.6"/><line x1="649.6875" x2="649.6875" y2="4.45"/><line x1="649.6875" x2="649.6875" y1="31.150000000000002" y2="35.6"/><line x1="674.65625" x2="674.65625" y2="4.45"/><line x1="674.65625" x2="674.65625" y1="31.150000000000002" y2="35.6"/><line x1="699.625" x2="699.625" y2="4.45"/><line x1="699.625" x2="699.625" y1="31.150000000000002" y2="35.6"/><line x1="724.59375" x2="724.59375" y2="4.45"/><line x1="724.59375" x2="724.59375" y1="31.150000000000002" y2="35.6"/><line x1="749.5625" x2="749.5625" y2="4.45"/><line x1="749.5625" x2="749.5625" y1="31.150000000000002" y2="35.6"/><line x1="799.5" x2="799.5" y2="35.6"/><line x1="774.53125" x2="774.53125" y2="4.45"/><line x1="774.53125" x2="774.53125" y1="31.150000000000002" y2="35.6"/></g></g><g transform="translate(0, 121.2)"><g text-anchor="middle"><g ><g transform="translate(0, 0)"><rect style=";fill:rgb(229, 229, 229)" x="0.0" y="0.5" width="200.0" height="35.1" fill="rgb(229, 229, 229)"/><rect style=";fill:rgb(229, 229, 229)" x="200.0" y="0.5" width="200.0" height="35.1" fill="rgb(229, 229, 229)"/><rect style=";fill:rgb(229, 229, 229)" x="400.0" y="0.5" width="200.0" height="35.1" fill="rgb(229, 229, 229)"/><rect style=";fill:rgb(125, 36, 200)" x="600.0" y="0.5" width="200.0" height="35.1" fill="rgb(125, 36, 200)"/></g><g transform="translate(12.5, 23.8)"><g transform="translate(87.5, -6)"><text font-size="12" font-family="Roboto" font-weight="normal" text-anchor="middle" y="6"><tspan >t dolore </tspan></text></g><g transform="translate(287.5, -6)"><text font-size="12" font-family="Roboto" font-weight="normal" text-anchor="middle" y="6"><tspan >dolores </tspan></text></g><g transform="translate(487.5, -6)"><text font-size="12" font-family="Roboto" font-weight="normal" text-anchor="middle" y="6"><tspan >ea takima</tspan></text></g><g transform="translate(687.5, -6)"><text font-size="12" font-family="Roboto" font-weight="normal" text-anchor="middle" y="6"><tspan >s est Lorem</tspan></text></g></g><g transform="translate(12.5, 47.6)"/></g></g><g stroke="black" stroke-width="1" stroke-linecap="butt" transform="translate(0, 0)"><line x2="800.0" y1="35.6" y2="35.6"/><line x1="0.5" x2="0.5" y2="35.6"/><line x1="25.46875" x2="25.46875" y2="4.45"/><line x1="25.46875" x2="25.46875" y1="31.150000000000002" y2="35.6"/><line x1="50.4375" x2="50.4375" y2="4.45"/><line x1="50.4375" x2="50.4375" y1="31.150000000000002" y2="35.6"/><line x1="75.40625" x2="75.40625" y2="4.45"/><line x1="75.40625" x2="75.40625" y1="31.150000000000002" y2="35.6"/><line x1="100.375" x2="100.375" y2="4.45"/><line x1="100.375" x2="100.375" y1="31.150000000000002" y2="35.6"/><line x1="125.34375" x2="125.34375" y2="4.45"/><line x1="125.34375" x2="125.34375" y1="31.150000000000002" y2="35.6"/><line x1="150.3125" x2="150.3125" y2="4.45"/><line x1="150.3125" x2="150.3125" y1="31.150000000000002" y2="35.6"/><line x1="175.28125" x2="175.28125" y2="4.45"/><line x1="175.28125" x2="175.28125" y1="31.150000000000002" y2="35.6"/><line x1="200.25" x2="200.25" y2="35.6"/><line x1="225.21875" x2="225.21875" y2="4.45"/><line x1="225.21875" x2="225.21875" y1="31.150000000000002" y2="35.6"/><line x1="250.1875" x2="250.1875" y2="4.45"/><line x1="250.1875" x2="250.1875" y1="31.150000000000002" y2="35.6"/><line x1="275.15625" x2="275.15625" y2="4.45"/><line x1="275.15625" x2="275.15625" y1="31.150000000000002" y2="35.6"/><line x1="300.125" x2="300.125" y2="4.45"/><line x1="300.125" x2="300.125" y1="31.150000000000002" y2="35.6"/><line x1="325.09375" x2="325.09375" y2="4.45"/><line x1="325.09375" x2="325.09375" y1="31.150000000000002" y2="35.6"/><line x1="350.0625" x2="350.0625" y2="4.45"/><line x1="350.0625" x2="350.0625" y1="31.150000000000002" y2="35.6"/><line x1="375.03125" x2="375.03125" y2="4.45"/><line x1="375.03125" x2="375.03125" y1="31.150000000000002" y2="35.6"/><line x1="400.0" x2="400.0" y2="35.6"/><line x1="424.96875" x2="424.96875" y2="4.45"/><line x1="424.96875" x2="424.96875" y1="31.150000000000002" y2="35.6"/><line x1="449.9375" x2="449.9375" y2="4.45"/><line x1="449.9375" x2="449.9375" y1="31.150000000000002" y2="35.6"/><line x1="474.90625" x2="474.90625" y2="4.45"/><line x1="474.90625" x2="474.90625" y1="31.150000000000002" y2="35.6"/><line x1="499.875" x2="499.875" y2="4.45"/><line x1="499.875" x2="499.875" y1="31.150000000000002" y2="35.6"/><line x1="524.84375" x2="524.84375" y2="4.45"/><line x1="524.84375" x2="524.84375" y1="31.150000000000002" y2="35.6"/><line x1="549.8125" x2="549.8125" y2="4.45"/><line x1="549.8125" x2="549.8125" y1="31.150000000000002" y2="35.6"/><line x1="574.78125" x2="574.78125" y2="4.45"/><line x1="574.78125" x2="574.78125" y1="31.150000000000002" y2="35.6"/><line x1="599.75" x2="599.75" y2="35.6"/><line x1="624.71875" x2="624.71875" y2="4.45"/><line x1="624.71875" x2="624.71875" y1="31.150000000000002" y2="35.6"/><line x1="649.6875" x2="649.6875" y2="4.45"/><line x1="649.6875" x2="649.6875" y1="31.150000000000002" y2="35.6"/><line x1="674.65625" x2="674.65625" y2="4.45"/><line x1="674.65625" x2="674.65625" y1="31.150000000000002" y2="35.6"/><line x1="699.625" x2="699.625" y2="4.45"/><line x1="699.625" x2="699.625" y1="31.150000000000002" y2="35.6"/><line x1="724.59375" x2="724.59375" y2="4.45"/><line x1="724.59375" x2="724.59375" y1="31.150000000000002" y2="35.6"/><line x1="749.5625" x2="749.5625" y2="4.45"/><line x1="749.5625" x2="749.5625" y1="31.150000000000002" y2="35.6"/><line x1="799.5" x2="799.5" y2="35.6"/><line x1="774.53125" x2="774.53125" y2="4.45"/><line x1="774.53125" x2="774.53125" y1="31.150000000000002" y2="35.6"/></g></g><g transform="translate(0, 156.8)"><g text-anchor="middle"><g ><g transform="translate(0, 0)"/><g transform="translate(12.5, 23.8)"/><g transform="translate(12.5, 47.6)"/></g></g><g stroke="black" stroke-width="1" stroke-linecap="butt" transform="translate(0, 0)"><line x2="800.0" y1="35.6" y2="35.6"/><line x1="0.5" x2="0.5" y2="35.6"/><line x1="25.46875" x2="25.46875" y2="4.45"/><line x1="25.46875" x2="25.46875" y1="31.150000000000002" y2="35.6"/><line x1="50.4375" x2="50.4375" y2="4.45"/><line x1="50.4375" x2="50.4375" y1="31.150000000000002" y2="35.6"/><line x1="75.40625" x2="75.40625" y2="4.45"/><line x1="75.40625" x2="75.40625" y1="31.150000000000002" y2="35.6"/><line x1="100.375" x2="100.375" y2="4.45"/><line x1="100.375" x2="100.375" y1="31.150000000000002" y2="35.6"/><line x1="125.34375" x2="125.34375" y2="4.45"/><line x1="125.34375" x2="125.34375" y1="31.150000000000002" y2="35.6"/><line x1="150.3125" x2="150.3125" y2="4.45"/><line x1="150.3125" x2="150.3125" y1="31.150000000000002" y2="35.6"/><line x1="175.28125" x2="175.28125" y2="4.45"/><line x1="175.28125" x2="175.28125" y1="31.150000000000002" y2="35.6"/><line x1="200.25" x2="200.25" y2="4.45"/><line x1="200.25" x2="200.25" y1="31.150000000000002" y2="35.6"/><line x1="225.21875" x2="225.21875" y2="4.45"/><line x1="225.21875" x2="225.21875" y1="31.150000000000002" y2="35.6"/><line x1="250.1875" x2="250.1875" y2="4.45"/><line x1="250.1875" x2="250.1875" y1="31.150000000000002" y2="35.6"/><line x1="275.15625" x2="275.15625" y2="4.45"/><line x1="275.15625" x2="275.15625" y1="31.150000000000002" y2="35.6"/><line x1="300.125" x2="300.125" y2="4.45"/><line x1="300.125" x2="300.125" y1="31.150000000000002" y2="35.6"/><line x1="325.09375" x2="325.09375" y2="4.45"/><line x1="325.09375" x2="325.09375" y1="31.150000000000002" y2="35.6"/><line x1="350.0625" x2="350.0625" y2="4.45"/><line x1="350.0625" x2="350.0625" y1="31.150000000000002" y2="35.6"/><line x1="375.03125" x2="375.03125" y2="4.45"/><line x1="375.03125" x2="375.03125" y1="31.150000000000002" y2="35.6"/><line x1="400.0" x2="400.0" y2="4.45"/><line x1="400.0" x2="400.0" y1="31.150000000000002" y2="35.6"/><line x1="424.96875" x2="424.96875" y2="4.45"/><line x1="424.96875" x2="424.96875" y1="31.150000000000002" y2="35.6"/><line x1="449.9375" x2="449.9375" y2="4.45"/><line x1="449.9375" x2="449.9375" y1="31.150000000000002" y2="35.6"/><line x1="474.90625" x2="474.90625" y2="4.45"/><line x1="474.90625" x2="474.90625" y1="31.150000000000002" y2="35.6"/><line x1="499.875" x2="499.875" y2="4.45"/><line x1="499.875" x2="499.875" y1="31.150000000000002" y2="35.6"/><line x1="524.84375" x2="524.84375" y2="4.45"/><line x1="524.84375" x2="524.84375" y1="31.150000000000002" y2="35.6"/><line x1="549.8125" x2="549.8125" y2="4.45"/><line x1="549.8125" x2="549.8125" y1="31.150000000000002" y2="35.6"/><line x1="574.78125" x2="574.78125" y2="4.45"/><line x1="574.78125" x2="574.78125" y1="31.150000000000002" y2="35.6"/><line x1="599.75" x2="599.75" y2="4.45"/><line x1="599.75" x2="599.75" y1="31.150000000000002" y2="35.6"/><line x1="624.71875" x2="624.71875" y2="4.45"/><line x1="624.71875" x2="624.71875" y1="31.150000000000002" y2="35.6"/><line x1="649.6875" x2="649.6875" y2="4.45"/><line x1="649.6875" x2="649.6875" y1="31.150000000000002" y2="35.6"/><line x1="674.65625" x2="674.65625" y2="4.45"/><line x1="674.65625" x2="674.65625" y1="31.150000000000002" y2="35.6"/><line x1="699.625" x2="699.625" y2="4.45"/><line x1="699.625" x2="699.625" y1="31.150000000000002" y2="35.6"/><line x1="724.59375" x2="724.59375" y2="4.45"/><line x1="724.59375" x2="724.59375" y1="31.150000000000002" y2="35.6"/><line x1="749.5625" x2="749.5625" y2="4.45"/><line x1="749.5625" x2="749.5625" y1="31.150000000000002" y2="35.6"/><line x1="799.5" x2="799.5" y2="35.6"/><line x1="774.53125" x2="774.53125" y2="4.45"/><line x1="774.53125" x2="774.53125" y1="31.150000000000002" y2="35.6"/></g></g><g transform="translate(0, 192.4)"><g text-anchor="middle"><g ><g transform="translate(0, 0)"/><g transform="translate(12.5, 23.8)"/><g transform="translate(12.5, 47.6)"/></g></g><g stroke="black" stroke-width="1" stroke-linecap="butt" transform="translate(0, 0)"><line x2="800.0" y1="35.6" y2="35.6"/><line x1="0.5" x2="0.5" y2="35.6"/><line x1="25.46875" x2="25.46875" y2="4.45"/><line x1="25.46875" x2="25.46875" y1="31.150000000000002" y2="35.6"/><line x1="50.4375" x2="50.4375" y2="4.45"/><line x1="50.4375" x2="50.4375" y1="31.150000000000002" y2="35.6"/><line x1="75.40625" x2="75.40625" y2="4.45"/><line x1="75.40625" x2="75.40625" y1="31.150000000000002" y2="35.6"/><line x1="100.375" x2="100.375" y2="4.45"/><line x1="100.375" x2="100.375" y1="31.150000000000002" y2="35.6"/><line x1="125.34375" x2="125.34375" y2="4.45"/><line x1="125.34375" x2="125.34375" y1="31.150000000000002" y2="35.6"/><line x1="150.3125" x2="150.3125" y2="4.45"/><line x1="150.3125" x2="150.3125" y1="31.150000000000002" y2="35.6"/><line x1="175.28125" x2="175.28125" y2="4.45"/><line x1="175.28125" x2="175.28125" y1="31.150000000000002" y2="35.6"/><line x1="200.25" x2="200.25" y2="4.45"/><line x1="200.25" x2="200.25" y1="31.150000000000002" y2="35.6"/><line x1="225.21875" x2="225.21875" y2="4.45"/><line x1="225.21875" x2="225.21875" y1="31.150000000000002" y2="35.6"/><line x1="250.1875" x2="250.1875" y2="4.45"/><line x1="250.1875" x2="250.1875" y1="31.150000000000002" y2="35.6"/><line x1="275.15625" x2="275.15625" y2="4.45"/><line x1="275.15625" x2="275.15625" y1="31.150000000000002" y2="35.6"/><line x1="300.125" x2="300.125" y2="4.45"/><line x1="300.125" x2="300.125" y1="31.150000000000002" y2="35.6"/><line x1="325.09375" x2="325.09375" y2="4.45"/><line x1="325.09375" x2="325.09375" y1="31.150000000000002" y2="35.6"/><line x1="350.0625" x2="350.0625" y2="4.45"/><line x1="350.0625" x2="350.0625" y1="31.150000000000002" y2="35.6"/><line x1="375.03125" x2="375.03125" y2="4.45"/><line x1="375.03125" x2="375.03125" y1="31.150000000000002" y2="35.6"/><line x1="400.0" x2="400.0" y2="4.45"/><line x1="400.0" x2="400.0" y1="31.150000000000002" y2="35.6"/><line x1="424.96875" x2="424.96875" y2="4.45"/><line x1="424.96875" x2="424.96875" y1="31.150000000000002" y2="35.6"/><line x1="449.9375" x2="449.9375" y2="4.45"/><line x1="449.9375" x2="449.9375" y1="31.150000000000002" y2="35.6"/><line x1="474.90625" x2="474.90625" y2="4.45"/><line x1="474.90625" x2="474.90625" y1="31.150000000000002" y2="35.6"/><line x1="499.875" x2="499.875" y2="4.45"/><line x1="499.875" x2="499.875" y1="31.150000000000002" y2="35.6"/><line x1="524.84375" x2="524.84375" y2="4.45"/><line x1="524.84375" x2="524.84375" y1="31.150000000000002" y2="35.6"/><line x1="549.8125" x2="549.8125" y2="4.45"/><line x1="549.8125" x2="549.8125" y1="31.150000000000002" y2="35.6"/><line x1="574.78125" x2="574.78125" y2="4.45"/><line x1="574.78125" x2="574.78125" y1="31.150000000000002" y2="35.6"/><line x1="599.75" x2="599.75" y2="4.45"/><line x1="599.75" x2="599.75" y1="31.150000000000002" y2="35.6"/><line x1="624.71875" x2="624.71875" y2="4.45"/><line x1="624.71875" x2="624.71875" y1="31.150000000000002" y2="35.6"/><line x1="649.6875" x2="649.6875" y2="4.45"/><line x1="649.6875" x2="649.6875" y1="31.150000000000002" y2="35.6"/><line x1="674.65625" x2="674.65625" y2="4.45"/><line x1="674.65625" x2="674.65625" y1="31.150000000000002" y2="35.6"/><line x1="699.625" x2="699.625" y2="4.45"/><line x1="699.625" x2="699.625" y1="31.150000000000002" y2="35.6"/><line x1="724.59375" x2="724.59375" y2="4.45"/><line x1="724.59375" x2="724.59375" y1="31.150000000000002" y2="35.6"/><line x1="749.5625" x2="749.5625" y2="4.45"/><line x1="749.5625" x2="749.5625" y1="31.150000000000002" y2="35.6"/><line x1="799.5" x2="799.5" y2="35.6"/><line x1="774.53125" x2="774.53125" y2="4.45"/><line x1="774.53125" x2="774.53125" y1="31.150000000000002" y2="35.6"/></g></g><g transform="translate(0, 228.0)"><g text-anchor="middle"><g ><g transform="translate(0, 0)"><rect style=";fill:rgb(204, 255, 246)" x="0.0" y="0.5" width="800.0" height="35.1" fill="rgb(204, 255, 246)"/></g><g transform="translate(12.5, 23.8)"><g transform="translate(387.5, -6)"><text font-size="12" font-family="Roboto" font-weight="normal" text-anchor="middle" y="6"><tspan >et accusa</tspan></text></g></g><g transform="translate(12.5, 47.6)"/></g></g><g stroke="black" stroke-width="1" stroke-linecap="butt" transform="translate(0, 0)"><line x2="800.0" y1="35.6" y2="35.6"/><line x1="0.5" x2="0.5" y2="35.6"/><line x1="25.46875" x2="25.46875" y2="4.45"/><line x1="25.46875" x2="25.46875" y1="31.150000000000002" y2="35.6"/><line x1="50.4375" x2="50.4375" y2="4.45"/><line x1="50.4375" x2="50.4375" y1="31.150000000000002" y2="35.6"/><line x1="75.40625" x2="75.40625" y2="4.45"/><line x1="75.40625" x2="75.40625" y1="31.150000000000002" y2="35.6"/><line x1="100.375" x2="100.375" y2="4.45"/><line x1="100.375" x2="100.375" y1="31.150000000000002" y2="35.6"/><line x1="125.34375" x2="125.34375" y2="4.45"/><line x1="125.34375" x2="125.34375" y1="31.150000000000002" y2="35.6"/><line x1="150.3125" x2="150.3125" y2="4.45"/><line x1="150.3125" x2="150.3125" y1="31.150000000000002" y2="35.6"/><line x1="175.28125" x2="175.28125" y2="4.45"/><line x1="175.28125" x2="175.28125" y1="31.150000000000002" y2="35.6"/><line x1="200.25" x2="200.25" y2="4.45"/><line x1="200.25" x2="200.25" y1="31.150000000000002" y2="35.6"/><line x1="225.21875" x2="225.21875" y2="4.45"/><line x1="225.21875" x2="225.21875" y1="31.150000000000002" y2="35.6"/><line x1="250.1875" x2="250.1875" y2="4.45"/><line x1="250.1875" x2="250.1875" y1="31.150000000000002" y2="35.6"/><line x1="275.15625" x2="275.15625" y2="4.45"/><line x1="275.15625" x2="275.15625" y1="31.150000000000002" y2="35.6"/><line x1="300.125" x2="300.125" y2="4.45"/><line x1="300.125" x2="300.125" y1="31.150000000000002" y2="35.6"/><line x1="325.09375" x2="325.09375" y2="4.45"/><line x1="325.09375" x2="325.09375" y1="31.150000000000002" y2="35.6"/><line x1="350.0625" x2="350.0625" y2="4.45"/><line x1="350.0625" x2="350.0625" y1="31.150000000000002" y2="35.6"/><line x1="375.03125" x2="375.03125" y2="4.45"/><line x1="375.03125" x2="375.03125" y1="31.150000000000002" y2="35.6"/><line x1="400.0" x2="400.0" y2="4.45"/><line x1="400.0" x2="400.0" y1="31.150000000000002" y2="35.6"/><line x1="424.96875" x2="424.96875" y2="4.45"/><line x1="424.96875" x2="424.96875" y1="31.150000000000002" y2="35.6"/><line x1="449.9375" x2="449.9375" y2="4.45"/><line x1="449.9375" x2="449.9375" y1="31.150000000000002" y2="35.6"/><line x1="474.90625" x2="474.90625" y2="4.45"/><line x1="474.90625" x2="474.90625" y1="31.150000000000002" y2="35.6"/><line x1="499.875" x2="499.875" y2="4.45"/><line x1="499.875" x2="499.875" y1="31.150000000000002" y2="35.6"/><line x1="524.84375" x2="524.84375" y2="4.45"/><line x1="524.84375" x2="524.84375" y1="31.150000000000002" y2="35.6"/><line x1="549.8125" x2="549.8125" y2="4.45"/><line x1="549.8125" x2="549.8125" y1="31.150000000000002" y2="35.6"/><line x1="574.78125" x2="574.78125" y2="4.45"/><line x1="574.78125" x2="574.78125" y1="31.150000000000002" y2="35.6"/><line x1="599.75" x2="599.75" y2="4.45"/><line x1="599.75" x2="599.75" y1="31.150000000000002" y2="35.6"/><line x1="624.71875" x2="624.71875" y2="4.45"/><line x1="624.71875" x2="624.71875" y1="31.150000000000002" y2="35.6"/><line x1="649.6875" x2="649.6875" y2="4.45"/><line x1="649.6875" x2="649.6875" y1="31.150000000000002" y2="35.6"/><line x1="674.65625" x2="674.65625" y2="4.45"/><line x1="674.65625" x2="674.65625" y1="31.150000000000002" y2="35.6"/><line x1="699.625" x2="699.625" y2="4.45"/><line x1="699.625" x2="699.625" y1="31.150000000000002" y2="35.6"/><line x1="724.59375" x2="724.59375" y2="4.45"/><line x1="724.59375" x2="724.59375" y1="31.150000000000002" y2="35.6"/><line x1="749.5625" x2="749.5625" y2="4.45"/><line x1="749.5625" x2="749.5625" y1="31.150000000000002" y2="35.6"/><line x1="799.5" x2="799.5" y2="35.6"/><line x1="774.53125" x2="774.53125" y2="4.45"/><line x1="774.53125" x2="774.53125" y1="31.150000000000002" y2="35.6"/></g></g><g transform="translate(0, 263.6)"><g text-anchor="middle"><g ><g transform="translate(0, 0)"/><g transform="translate(12.5, 23.8)"/><g transform="translate(12.5, 47.6)"/></g></g><g stroke="black" stroke-width="1" stroke-linecap="butt" transform="translate(0, 0)"><line x2="800.0" y1="35.6" y2="35.6"/><line x1="0.5" x2="0.5" y2="35.6"/><line x1="25.46875" x2="25.46875" y2="4.45"/><line x1="25.46875" x2="25.46875" y1="31.150000000000002" y2="35.6"/><line x1="50.4375" x2="50.4375" y2="4.45"/><line x1="50.4375" x2="50.4375" y1="31.150000000000002" y2="35.6"/><line x1="75.40625" x2="75.40625" y2="4.45"/><line x1="75.40625" x2="75.40625" y1="31.150000000000002" y2="35.6"/><line x1="100.375" x2="100.375" y2="4.45"/><line x1="100.375" x2="100.375" y1="31.150000000000002" y2="35.6"/><line x1="125.34375" x2="125.34375" y2="4.45"/><line x1="125.34375" x2="125.34375" y1="31.150000000000002" y2="35.6"/><line x1="150.3125" x2="150.3125" y2="4.45"/><line x1="150.3125" x2="150.3125" y1="31.150000000000002" y2="35.6"/><line x1="175.28125" x2="175.28125" y2="4.45"/><line x1="175.28125" x2="175.28125" y1="31.150000000000002" y2="35.6"/><line x1="200.25" x2="200.25" y2="4.45"/><line x1="200.25" x2="200.25" y1="31.150000000000002" y2="35.6"/><line x1="225.21875" x2="225.21875" y2="4.45"/><line x1="225.21875" x2="225.21875" y1="31.150000000000002" y2="35.6"/><line x1="250.1875" x2="250.1875" y2="4.45"/><line x1="250.1875" x2="250.1875" y1="31.150000000000002" y2="35.6"/><line x1="275.15625" x2="275.15625" y2="4.45"/><line x1="275.15625" x2="275.15625" y1="31.150000000000002" y2="35.6"/><line x1="300.125" x2="300.125" y2="4.45"/><line x1="300.125" x2="300.125" y1="31.150000000000002" y2="35.6"/><line x1="325.09375" x2="325.09375" y2="4.45"/><line x1="325.09375" x2="325.09375" y1="31.150000000000002" y2="35.6"/><line x1="350.0625" x2="350.0625" y2="4.45"/><line x1="350.0625" x2="350.0625" y1="31.150000000000002" y2="35.6"/><line x1="375.03125" x2="375.03125" y2="4.45"/><line x1="375.03125" x2="375.03125" y1="31.150000000000002" y2="35.6"/><line x1="400.0" x2="400.0" y2="4.45"/><line x1="400.0" x2="400.0" y1="31.150000000000002" y2="35.6"/><line x1="424.96875" x2="424.96875" y2="4.45"/><line x1="424.96875" x2="424.96875" y1="31.150000000000002" y2="35.6"/><line x1="449.9375" x2="449.9375" y2="4.45"/><line x1="449.9375" x2="449.9375" y1="31.150000000000002" y2="35.6"/><line x1="474.90625" x2="474.90625" y2="4.45"/><line x1="474.90625" x2="474.90625" y1="31.150000000000002" y2="35.6"/><line x1="499.875" x2="499.875" y2="4.45"/><line x1="499.875" x2="499.875" y1="31.150000000000002" y2="35.6"/><line x1="524.84375" x2="524.84375" y2="4.45"/><line x1="524.84375" x2="524.84375" y1="31.150000000000002" y2="35.6"/><line x1="549.8125" x2="549.8125" y2="4.45"/><line x1="549.8125" x2="549.8125" y1="31.150000000000002" y2="35.6"/><line x1="574.78125" x2="574.78125" y2="4.45"/><line x1="574.78125" x2="574.78125" y1="31.150000000000002" y2="35.6"/><line x1="599.75" x2="599.75" y2="4.45"/><line x1="599.75" x2="599.75" y1="31.150000000000002" y2="35.6"/><line x1="624.71875" x2="624.71875" y2="4.45"/><line x1="624.71875" x2="624.71875" y1="31.150000000000002" y2="35.6"/><line x1="649.6875" x2="649.6875" y2="4.45"/><line x1="649.6875" x2="649.6875" y1="31.150000000000002" y2="35.6"/><line x1="674.65625" x2="674.65625" y2="4.45"/><line x1="674.65625" x2="674.65625" y1="31.150000000000002" y2="35.6"/><line x1="699.625" x2="699.625" y2="4.45"/><line x1="699.625" x2="699.625" y1="31.150000000000002" y2="35.6"/><line x1="724.59375" x2="724.59375" y2="4.45"/><line x1="724.59375" x2="724.59375" y1="31.150000000000002" y2="35.6"/><line x1="749.5625" x2="749.5625" y2="4.45"/><line x1="749.5625" x2="749.5625" y1="31.150000000000002" y2="35.6"/><line x1="799.5" x2="799.5" y2="35.6"/><line x1="774.53125" x2="774.53125" y2="4.45"/><line x1="774.53125" x2="774.53125" y1="31.150000000000002" y2="35.6"/></g></g><g transform="translate(0, 299.20000000000005)"><g text-anchor="middle"><g ><g transform="translate(0, 0)"/><g transform="translate(12.5, 23.8)"/><g transform="translate(12.5, 47.6)"/></g></g><g stroke="black" stroke-width="1" stroke-linecap="butt" transform="translate(0, 0)"><line x2="800.0" y1="35.6" y2="35.6"/><line x1="0.5" x2="0.5" y2="35.6"/><line x1="25.46875" x2="25.46875" y2="4.45"/><line x1="25.46875" x2="25.46875" y1="31.150000000000002" y2="35.6"/><line x1="50.4375" x2="50.4375" y2="4.45"/><line x1="50.4375" x2="50.4375" y1="31.150000000000002" y2="35.6"/><line x1="75.40625" x2="75.40625" y2="4.45"/><line x1="75.40625" x2="75.40625" y1="31.150000000000002" y2="35.6"/><line x1="100.375" x2="100.375" y2="4.45"/><line x1="100.375" x2="100.375" y1="31.150000000000002" y2="35.6"/><line x1="125.34375" x2="125.34375" y2="4.45"/><line x1="125.34375" x2="125.34375" y1="31.150000000000002" y2="35.6"/><line x1="150.3125" x2="150.3125" y2="4.45"/><line x1="150.3125" x2="150.3125" y1="31.150000000000002" y2="35.6"/><line x1="175.28125" x2="175.28125" y2="4.45"/><line x1="175.28125" x2="175.28125" y1="31.150000000000002" y2="35.6"/><line x1="200.25" x2="200.25" y2="4.45"/><line x1="200.25" x2="200.25" y1="31.150000000000002" y2="35.6"/><line x1="225.21875" x2="225.21875" y2="4.45"/><line x1="225.21875" x2="225.21875" y1="31.150000000000002" y2="35.6"/><line x1="250.1875" x2="250.1875" y2="4.45"/><line x1="250.1875" x2="250.1875" y1="31.150000000000002" y2="35.6"/><line x1="275.15625" x2="275.15625" y2="4.45"/><line x1="275.15625" x2="275.15625" y1="31.150000000000002" y2="35.6"/><line x1="300.125" x2="300.125" y2="4.45"/><line x1="300.125" x2="300.125" y1="31.150000000000002" y2="35.6"/><line x1="325.09375" x2="325.09375" y2="4.45"/><line x1="325.09375" x2="325.09375" y1="31.150000000000002" y2="35.6"/><line x1="350.0625" x2="350.0625" y2="4.45"/><line x1="350.0625" x2="350.0625" y1="31.150000000000002" y2="35.6"/><line x1="375.03125" x2="375.03125" y2="4.45"/><line x1="375.03125" x2="375.03125" y1="31.150000000000002" y2="35.6"/><line x1="400.0" x2="400.0" y2="4.45"/><line x1="400.0" x2="400.0" y1="31.150000000000002" y2="35.6"/><line x1="424.96875" x2="424.96875" y2="4.45"/><line x1="424.96875" x2="424.96875" y1="31.150000000000002" y2="35.6"/><line x1="449.9375" x2="449.9375" y2="4.45"/><line x1="449.9375" x2="449.9375" y1="31.150000000000002" y2="35.6"/><line x1="474.90625" x2="474.90625" y2="4.45"/><line x1="474.90625" x2="474.90625" y1="31.150000000000002" y2="35.6"/><line x1="499.875" x2="499.875" y2="4.45"/><line x1="499.875" x2="499.875" y1="31.150000000000002" y2="35.6"/><line x1="524.84375" x2="524.84375" y2="4.45"/><line x1="524.84375" x2="524.84375" y1="31.150000000000002" y2="35.6"/><line x1="549.8125" x2="549.8125" y2="4.45"/><line x1="549.8125" x2="549.8125" y1="31.150000000000002" y2="35.6"/><line x1="574.78125" x2="574.78125" y2="4.45"/><line x1="574.78125" x2="574.78125" y1="31.150000000000002" y2="35.6"/><line x1="599.75" x2="599.75" y2="4.45"/><line x1="599.75" x2="599.75" y1="31.150000000000002" y2="35.6"/><line x1="624.71875" x2="624.71875" y2="4.45"/><line x1="624.71875" x2="624.71875" y1="31.150000000000002" y2="35.6"/><line x1="649.6875" x2="649.6875" y2="4.45"/><line x1="649.6875" x2="649.6875" y1="31.150000000000002" y2="35.6"/><line x1="674.65625" x2="674.65625" y2="4.45"/><line x1="674.65625" x2="674.65625" y1="31.150000000000002" y2="35.6"/><line x1="699.625" x2="699.625" y2="4.45"/><line x1="699.625" x2="699.625" y1="31.150000000000002" y2="35.6"/><line x1="724.59375" x2="724.59375" y2="4.45"/><line x1="724.59375" x2="724.59375" y1="31.150000000000002" y2="35.6"/><line x1="749.5625" x2="749.5625" y2="4.45"/><line x1="749.5625" x2="749.5625" y1="31.150000000000002" y2="35.6"/><line x1="799.5" x2="799.5" y2="35.6"/><line x1="774.53125" x2="774.53125" y2="4.45"/><line x1="774.53125" x2="774.53125" y1="31.150000000000002" y2="35.6"/></g></g><g ><g stroke="black" stroke-width="1" fill="none"><line x1="-37.5" y1="14.399999999999999" x2="-12.5" y2="14.399999999999999"/><line x1="-37.5" y1="156.8" x2="-12.5" y2="156.8"/><line x1="-25.0" y1="14.399999999999999" x2="-25.0" y2="156.8" marker-start="url(#arrow)" marker-end="url(#arrow)"/></g><text x="-37.5" y="85.60000000000001" font-size="12" font-family="Roboto" font-weight="normal" text-anchor="end" dominant-baseline="middle" textLength="79.2" lengthAdjust="spacingAndGlyphs">Line Cover1</text></g><g ><g stroke="black" stroke-width="1" fill="none"><line x1="-37.5" y1="156.8" x2="-12.5" y2="156.8"/><line x1="-37.5" y1="192.4" x2="-12.5" y2="192.4"/><line x1="-25.0" y1="156.8" x2="-25.0" y2="192.4" marker-start="url(#arrow)" marker-end="url(#arrow)"/></g><text x="-37.5" y="174.60000000000002" font-size="12" font-family="Roboto" font-weight="normal" text-anchor="end" dominant-baseline="middle" textLength="79.2" lengthAdjust="spacingAndGlyphs">Line Cover2</text></g><g ><g stroke="black" stroke-width="1" fill="none"><line x1="812.5" y1="192.4" x2="837.5" y2="192.4"/><line x1="812.5" y1="334.8" x2="837.5" y2="334.8"/><line x1="825.0" y1="192.4" x2="825.0" y2="334.8" marker-start="url(#arrow)" marker-end="url(#arrow)"/></g><text x="837.5" y="263.6" font-size="12" font-family="Roboto" font-weight="normal" text-anchor="start" dominant-baseline="middle" textLength="43.199999999999996" lengthAdjust="spacingAndGlyphs">Length</text></g><g ><g stroke="black" stroke-width="1" fill="none"><line x1="812.5" y1="85.6" x2="837.5" y2="85.6"/><line x1="812.5" y1="192.4" x2="837.5" y2="192.4"/><line x1="825.0" y1="85.6" x2="825.0" y2="192.4" marker-start="url(#arrow)" marker-end="url(#arrow)"/></g><text x="837.5" y="139.0" font-size="12" font-family="Roboto" font-weight="normal" text-anchor="start" dominant-baseline="middle" textLength="43.199999999999996" lengthAdjust="spacingAndGlyphs">Length</text></g></svg>